<svg width="1000" height="1000" viewBox="0 0 1000 1000" fill="none" xmlns="http://www.w3.org/2000/svg">
<path d="M860.394 412.218C867.616 335.809 862.507 303.593 845.837 254.9C795.37 158.644 718.564 114.12 576.999 112C421.714 123.025 324.002 218.246 328.543 350.733C328.543 350.733 274.447 334.956 234.887 340.98C146.432 352.356 121.234 391.114 89.3071 477.52C65.6583 609.639 82.721 671.809 144.142 770.532C204.8 837.527 264.499 852.391 352.806 871.45C486.617 896.664 565.198 890.129 706.565 871.45C848.786 820.88 898.954 780.985 914.743 681.059C917.861 598.178 902.271 561.674 860.394 504.658C887.568 499.994 919.619 463.037 914.743 447.837C881.671 427.005 869.415 419.646 860.394 412.218Z" fill="#FFC516"/>
<path d="M860.394 412.218C867.616 335.809 862.507 303.593 845.837 254.9C795.37 158.644 718.564 114.12 576.999 112C421.714 123.025 324.003 218.246 328.543 350.733C328.543 350.733 274.447 334.956 234.887 340.98C146.432 352.356 121.234 391.114 89.3071 477.52C66.0292 607.567 82.1958 669.842 141.285 765.914C143.164 768.969 145.36 771.898 147.809 774.52C207.218 838.128 266.279 852.775 352.806 871.45C486.617 896.664 565.198 890.129 706.565 871.45C848.786 820.88 898.955 780.985 914.743 681.059C917.861 598.178 902.271 561.674 860.394 504.658C887.568 499.994 919.619 463.037 914.743 447.837C881.671 427.005 869.415 419.646 860.394 412.218Z" fill="#FFC516"/>
<path d="M826.064 385.504C841.977 397.054 851.259 403.04 868.919 412.218C876.232 418.244 881.411 422.05 894.724 430.452C907.077 437.146 912.811 440.954 920.989 447.837C920.362 462.121 915.267 471.045 897.951 488.545C889.096 495.223 883.551 498.877 868.919 504.658C829.252 517.633 805.776 521.316 762.472 523.74C707.396 517.408 698.458 516.915 679.989 515.683C641.045 510.598 633.196 502.799 636.213 477.52C633.27 460.289 660.175 452.502 670.312 447.837C680.45 443.173 699.223 437.069 705.794 432.572C731.344 415.9 743.531 407.141 762.472 392.288C785.527 377.742 799.2 374.561 826.064 385.504Z" fill="#E1461B"/>
<path d="M624.756 394.14C652.241 394.14 674.523 373.637 674.523 348.344C674.523 323.052 652.241 302.548 624.756 302.548C597.27 302.548 574.989 323.052 574.989 348.344C574.989 373.637 597.27 394.14 624.756 394.14Z" fill="black"/>
<path d="M852.329 258.292C855.378 258.382 856.654 259.49 858.323 262.956C866.878 292.219 869.783 308.84 871.685 338.859C870.56 345.268 869.09 346.493 864.771 343.948C856.809 334.241 853.504 324.926 850.028 300.272C845.93 266.565 846.884 258.918 852.329 258.292Z" fill="black"/>
</svg>
