<svg width="3205" height="1519" viewBox="0 0 3205 1519" fill="none" xmlns="http://www.w3.org/2000/svg">
<path fill-rule="evenodd" clip-rule="evenodd" d="M2918.46 868.976C2969.79 868.976 3004.83 881.404 3023.59 906.236L3028.56 879.733H3151.9L3079.07 1291.15C3066.93 1361.24 3039.05 1416.7 2995.46 1457.53C2952.42 1498.37 2903.02 1518.78 2847.28 1518.78C2791.54 1518.78 2751.26 1508.58 2726.43 1488.16C2702.15 1467.74 2690.01 1440.97 2690.01 1407.86C2690.01 1359.3 2720.91 1317.09 2782.71 1281.22C2735.81 1266.32 2712.35 1230.71 2712.35 1174.42C2712.35 1160.63 2713.74 1145.45 2716.49 1128.9L2733.04 1032.06C2741.87 982.389 2762.31 942.925 2794.31 913.677C2826.32 883.883 2867.7 868.977 2918.46 868.976ZM2944.97 1254.74C2868.26 1290.61 2829.91 1326.74 2829.91 1363.16C2829.91 1374.2 2832.92 1383.04 2839 1389.67C2845.62 1396.84 2854.73 1400.42 2866.32 1400.42C2902.19 1400.42 2925.65 1367.86 2936.68 1302.74L2944.97 1254.74ZM2944.97 987.354C2923.45 987.354 2906.61 992.872 2894.47 1003.9C2882.34 1014.94 2874.6 1029.85 2871.29 1048.61L2860.53 1110.7C2859.43 1115.67 2858.86 1122.57 2858.86 1131.39C2858.86 1140.22 2863.01 1149.05 2871.29 1157.88C2879.57 1166.15 2893.36 1170.3 2912.67 1170.3C2932.54 1170.3 2949.66 1162.57 2964.01 1147.12L2988.82 1008.05C2981.1 994.255 2966.48 987.356 2944.97 987.354Z" fill="white"/>
<path fill-rule="evenodd" clip-rule="evenodd" d="M446.279 265.196C502.563 265.198 541.468 280.099 562.989 309.897C578.44 330.316 586.174 356.263 586.174 387.718C586.173 400.408 584.791 413.932 582.032 428.276L565.463 525.119C556.081 577.545 535.94 617.555 505.036 645.147C474.133 672.187 435.505 685.706 389.15 685.706C342.799 685.706 310.52 673.294 292.308 648.465L251.206 883.614C274.867 869.492 304.352 862.42 339.664 862.42C395.948 862.42 434.851 877.326 456.374 907.121C471.826 927.54 479.559 953.486 479.559 984.941C479.558 997.633 478.175 1011.15 475.416 1025.5L458.867 1122.34C449.486 1174.77 429.34 1214.78 398.44 1242.37C367.539 1269.41 328.907 1282.95 282.556 1282.95C236.2 1282.95 203.904 1270.52 185.692 1245.69L140.991 1501.47H0.271484L112.377 873.178L217.806 275.954H345.273L341.132 298.315C367.069 276.241 402.131 265.196 446.279 265.196ZM285.854 980.799C257.161 980.799 238.4 987.698 229.569 1001.49L204.735 1140.56C212.461 1156.01 228.746 1163.75 253.579 1163.75C269.026 1163.75 283.37 1158.78 296.611 1148.85C309.855 1138.91 318.133 1124.01 321.445 1104.15L332.203 1042.05C333.306 1036.53 333.872 1029.63 333.872 1021.36C333.871 1013.08 330.285 1004.25 323.114 994.875C315.94 985.494 303.513 980.799 285.854 980.799ZM392.469 383.575C363.772 383.575 344.995 390.47 336.165 404.267L311.331 543.338C319.057 558.788 335.344 566.502 360.174 566.503C375.626 566.503 389.982 561.536 403.227 551.603C416.468 541.669 424.75 526.766 428.061 506.901L438.819 444.826C439.923 439.308 440.468 432.41 440.468 424.134C440.468 415.856 436.884 407.012 429.71 397.631C422.536 388.256 410.12 383.576 392.469 383.575Z" fill="white"/>
<path d="M1665.8 916.995C1696.15 884.436 1734.24 868.152 1780.04 868.151C1835.78 868.151 1871.93 880.579 1888.48 905.412C1900.07 921.966 1905.86 940.455 1905.86 960.871C1905.86 981.287 1904.2 1000.05 1900.89 1017.16L1878.55 1140.5C1878 1143.81 1877.73 1146.85 1877.73 1149.61C1877.73 1164.5 1886.01 1171.95 1902.56 1171.95C1915.25 1171.95 1926.55 1169.18 1936.48 1163.67L1932.36 1257.21C1906.42 1278.73 1876.89 1289.51 1843.78 1289.51C1768.73 1289.51 1731.2 1258.04 1731.2 1195.14C1731.2 1184.1 1732.31 1172.22 1734.51 1159.52L1752.73 1057.71C1754.39 1047.78 1755.21 1037.85 1755.21 1027.91C1755.2 1001.43 1741.14 988.181 1713 988.179C1685.4 988.179 1663.88 997.568 1648.43 1016.33L1602.06 1277.9H1461.34L1555.58 755.825H1695.38L1665.8 916.995Z" fill="white"/>
<path d="M2127.84 1140.5C2127.29 1143.81 2126.99 1146.85 2126.99 1149.61C2127 1164.5 2135.28 1171.95 2151.83 1171.95C2164.52 1171.95 2175.84 1169.18 2185.77 1163.67L2181.63 1257.21C2155.69 1278.73 2126.18 1289.5 2093.07 1289.51C2042.85 1289.51 2010.28 1277.91 1995.38 1254.74C1985.45 1239.29 1980.48 1223 1980.48 1205.89C1980.48 1188.24 1981.59 1172.77 1983.8 1159.52L2024.8 928.577H2165.52L2127.84 1140.5Z" fill="white"/>
<path d="M2532.18 868.151C2581.85 868.151 2614.14 880.287 2629.04 904.567C2638.42 920.019 2643.1 937.687 2643.1 957.554C2643.1 977.419 2641.73 995.906 2638.98 1013.01L2616.62 1140.5C2616.06 1143.81 2615.79 1146.85 2615.79 1149.61C2615.79 1164.5 2624.07 1171.95 2640.62 1171.95C2653.32 1171.95 2664.63 1169.18 2674.57 1163.67L2670.43 1257.21C2644.49 1278.73 2614.96 1289.51 2581.85 1289.51C2506.8 1289.51 2469.28 1258.04 2469.28 1195.14C2469.28 1184.1 2470.37 1172.22 2472.58 1159.52L2492.44 1049.43C2494.1 1039.5 2494.94 1030.94 2494.94 1023.77C2494.94 1000.05 2483.34 988.181 2460.17 988.179C2437.54 988.179 2418.77 996.73 2403.87 1013.84L2357.52 1277.9H2216.8L2287.16 879.733H2417.94L2408.83 928.577C2441.39 888.292 2482.51 868.152 2532.18 868.151Z" fill="white"/>
<path fill-rule="evenodd" clip-rule="evenodd" d="M717.343 862.42C768.66 862.421 803.435 874.285 821.646 898.013L825.768 873.178H951.607L905.236 1133.95C904.685 1137.26 904.412 1140.57 904.412 1143.88C904.414 1158.22 911.588 1165.39 925.929 1165.4C940.829 1165.4 953.256 1162.63 963.189 1157.11L959.047 1250.66C932.558 1272.18 902.756 1282.95 869.645 1282.95C808.942 1282.95 775.281 1260.86 768.659 1216.71C741.068 1260.86 700.508 1282.95 646.982 1282.95C556.478 1282.95 511.21 1244.03 511.21 1166.22C511.21 1152.98 512.593 1138.34 515.352 1122.34L532.746 1025.5C541.576 975.834 561.716 936.369 593.172 907.121C625.179 877.324 666.575 862.42 717.343 862.42ZM744.649 980.799C702.16 980.8 677.323 1001.22 670.147 1042.05L659.39 1104.15C658.287 1109.11 657.74 1116.01 657.74 1124.84C657.741 1133.66 661.873 1142.49 670.147 1151.32C678.424 1159.6 692.221 1163.75 711.531 1163.75C731.398 1163.75 748.52 1156.01 762.868 1140.56L787.702 1001.49C781.631 987.696 767.275 980.799 744.649 980.799Z" fill="white"/>
<path d="M1200.39 873.178H1428.86L1408.17 989.908H1179.7L1163.15 1083.45C1160.94 1093.93 1159.83 1103.31 1159.83 1111.58C1159.83 1146.35 1176.39 1163.74 1209.5 1163.75C1227.16 1163.75 1241.79 1156.29 1253.38 1141.39C1265.52 1126.49 1273.8 1106.62 1278.21 1081.78H1415.63C1392.45 1215.89 1314.91 1282.95 1183.02 1282.95C1119 1282.95 1072.91 1268.59 1044.77 1239.9C1023.8 1218.93 1013.32 1190.78 1013.32 1155.46C1013.32 1143.88 1014.43 1131.46 1016.64 1118.22L1072.92 797.852L1224.4 734.952L1200.39 873.178Z" fill="white"/>
<path d="M2133.05 717.865C2180.21 717.865 2203.79 738.638 2203.79 780.185C2203.79 815.555 2195.65 841.381 2179.37 857.662C2163.65 873.944 2138.66 882.085 2104.41 882.085C2057.82 882.085 2034.52 861.873 2034.52 821.45C2034.52 785.518 2042.38 759.412 2058.1 743.13C2074.38 726.287 2099.36 717.865 2133.05 717.865Z" fill="white"/>
<path fill-rule="evenodd" clip-rule="evenodd" d="M873.546 263.547C984.469 263.547 1039.94 305.484 1039.94 389.366C1039.94 401.506 1038.83 414.754 1036.63 429.101L1026.69 487.878H774.209L770.911 506.901C769.807 513.523 769.242 519.601 769.242 525.119C769.242 555.471 787.183 570.645 823.053 570.646C836.296 570.646 847.615 566.515 856.996 558.238C866.377 549.961 871.89 540.298 873.546 529.262L1010.97 530.91C992.756 634.107 920.725 685.706 794.901 685.706C680.121 685.704 622.732 645.968 622.731 566.503C622.732 555.468 623.843 543.6 626.05 530.91L643.424 428.276C652.805 375.298 677.095 334.725 716.276 306.58C756.009 277.887 808.432 263.547 873.546 263.547ZM852.029 374.466C836.577 374.466 822.222 379.706 808.978 390.191C796.288 400.675 787.461 416.401 782.494 437.365H894.237C896.444 427.987 897.556 419.431 897.556 411.707C897.554 403.431 893.969 395.149 886.797 386.873C879.623 378.597 868.03 374.466 852.029 374.466Z" fill="white"/>
<path fill-rule="evenodd" clip-rule="evenodd" d="M1465.22 536.702C1464.67 540.011 1464.4 543.327 1464.4 546.636C1464.4 560.984 1471.56 568.172 1485.91 568.172C1500.81 568.172 1513.22 565.403 1523.15 559.887L1519.03 653.432C1492.54 674.953 1462.74 685.705 1429.63 685.706C1368.92 685.706 1335.24 663.637 1328.62 619.488C1301.03 663.634 1260.47 685.706 1206.95 685.706C1116.44 685.706 1071.19 646.805 1071.19 568.996C1071.19 555.752 1072.58 541.123 1075.33 525.119L1092.71 428.276C1101.54 378.611 1121.68 339.145 1153.13 309.897C1185.14 280.097 1229.3 265.196 1285.59 265.196C1320.35 265.197 1347.94 272.642 1368.36 287.537L1410.58 45.832H1552.13L1465.22 536.702ZM1304.63 383.575C1262.14 383.575 1237.31 403.989 1230.13 444.826L1219.37 506.901C1218.27 511.868 1217.7 518.783 1217.7 527.612C1217.71 536.439 1221.86 545.269 1230.13 554.096C1238.41 562.37 1252.2 566.503 1271.51 566.503C1291.38 566.503 1308.48 558.786 1322.83 543.338L1347.67 404.267C1341.6 390.472 1327.25 383.577 1304.63 383.575Z" fill="white"/>
<path fill-rule="evenodd" clip-rule="evenodd" d="M2246.46 264.372C2306.05 264.373 2351.03 277.346 2381.38 303.282C2405.11 323.701 2416.98 352.123 2416.98 388.542C2416.98 400.681 2415.59 413.931 2412.83 428.276L2395.46 525.119C2384.98 583.615 2360.41 625.008 2321.78 649.29C2283.71 673.572 2232.65 685.706 2168.64 685.706C2104.62 685.706 2057.72 673.57 2027.92 649.29C2005.84 631.081 1994.8 603.765 1994.8 567.348C1994.8 554.655 1996.18 540.571 1998.94 525.119L2016.33 428.276C2035.65 319.009 2112.36 264.372 2246.46 264.372ZM2221.62 379.433C2203.97 379.433 2189.06 385.495 2176.92 397.631C2164.78 409.22 2157.05 424.959 2153.74 444.826L2142.98 506.901C2141.87 512.42 2141.33 519.608 2141.33 528.438C2141.33 536.714 2144.92 545.814 2152.09 555.745C2159.26 565.677 2171.67 570.644 2189.33 570.646C2207.53 570.646 2222.72 564.582 2234.85 552.447C2247 539.755 2254.73 524.561 2258.04 506.901L2268.8 444.826C2269.9 439.308 2270.47 432.41 2270.47 424.134C2270.47 415.304 2266.86 405.643 2259.69 395.158C2252.51 384.676 2239.83 379.434 2221.62 379.433Z" fill="white"/>
<path d="M1875.88 264.372C1911.75 264.372 1938.51 272.923 1956.17 290.03C1974.38 307.138 1983.48 330.59 1983.48 360.39C1983.48 379.152 1980.19 397.367 1973.56 415.025C1967.49 432.684 1961.42 445.657 1955.35 453.935L1946.24 465.518H1821.24C1835.04 452.827 1841.93 437.102 1841.93 418.343C1841.93 408.41 1838.62 400.403 1832 394.333C1825.93 387.711 1817.38 384.399 1806.34 384.399C1787.58 384.399 1771.29 393.771 1757.5 412.531L1713 653.432H1574.06L1640.79 275.954H1771.57L1761.64 331.414C1793.1 286.716 1831.18 264.372 1875.88 264.372Z" fill="white"/>
<path d="M3144.39 300.583C3150.87 232.038 3147.43 199.058 3134.62 157.843C3131.59 148.095 3127.55 138.646 3122.42 129.82C3071.88 42.8503 2995.8 2.38377 2861 0.364258C2705.71 11.3893 2608 106.611 2612.54 239.098C2612.54 239.098 2558.45 223.321 2518.89 229.344C2436.31 239.966 2403.22 262.526 2369.24 342.615C2364.2 354.482 2360.7 367.016 2358.82 379.769C2342.18 492.85 2366.74 557.637 2418.72 643.559C2424.91 653.791 2432.07 663.488 2440.56 671.906C2497.08 727.941 2554.53 742.057 2636.81 759.815C2763.85 783.755 2841.11 779.073 2969.6 762.551C2983.51 760.761 2997.31 757.478 3010.46 752.583C3137.53 705.267 3183.71 664.543 3198.74 569.424C3201.86 486.542 3186.27 450.038 3144.39 393.023C3150.16 392.034 3156.14 389.593 3161.94 386.216C3198.23 365.089 3176.81 327.274 3144.39 300.583Z" fill="#FFC516"/>
<path d="M3110.06 273.869C3125.98 285.419 3135.26 291.404 3152.92 300.583C3160.23 306.609 3165.41 310.414 3178.72 318.816C3191.08 325.511 3196.81 329.318 3204.99 336.202C3204.36 350.486 3199.27 359.41 3181.95 376.91C3173.1 383.588 3167.55 387.242 3152.92 393.023C3113.25 405.998 3089.78 409.681 3046.47 412.104C2991.4 405.772 2982.46 405.28 2963.99 404.048C2925.04 398.963 2917.2 391.163 2920.21 365.885C2917.27 348.654 2944.17 340.866 2954.31 336.202C2964.45 331.538 2983.22 325.434 2989.79 320.936C3015.34 304.265 3027.53 295.506 3046.47 280.653C3069.53 266.107 3083.2 262.926 3110.06 273.869Z" fill="#E1461B"/>
<path d="M2908.76 282.505C2936.24 282.505 2958.52 262.001 2958.52 236.709C2958.52 211.416 2936.24 190.913 2908.76 190.913C2881.27 190.913 2858.99 211.416 2858.99 236.709C2858.99 262.001 2881.27 282.505 2908.76 282.505Z" fill="black"/>
<path d="M3136.33 146.657C3139.38 146.747 3140.65 147.855 3142.32 151.321C3150.88 180.584 3153.78 197.205 3155.69 227.224C3154.56 233.633 3153.09 234.858 3148.77 232.313C3140.81 222.606 3137.5 213.291 3134.03 188.637C3129.93 154.93 3130.88 147.283 3136.33 146.657Z" fill="black"/>
</svg>
